<?xml version="1.0" standalone="no"?>
<svg xmlns="http://www.w3.org/2000/svg" width="100" height="100" xmlns:xlink="http://www.w3.org/1999/xlink"><style>.background-color{ fill: #ffffff; }.dot-color{ fill: #000000; }.corners-square-color-0-0{ fill: undefined; }.corners-dot-color-0-0{ fill: undefined; }.corners-square-color-1-0{ fill: undefined; }.corners-dot-color-1-0{ fill: undefined; }.corners-square-color-0-1{ fill: undefined; }.corners-dot-color-0-1{ fill: undefined; }</style><defs/><g class="dot-color"><path d="M 32 0v 4h 4v -2a 2 2, 0, 0, 0, -2 -2" transform="rotate(-90,34,2)"/><rect x="36" y="0" width="4" height="4" transform="rotate(0,38,2)"/><path d="M 40 0v 4h 4v -2a 2 2, 0, 0, 0, -2 -2" transform="rotate(90,42,2)"/><path d="M 48 0v 2a 2 2, 0, 0, 0, 2 2h 2v -2a 2 2, 0, 0, 0, -2 -2" transform="rotate(90,50,2)"/><path d="M 60 0v 4h 4v -2a 2 2, 0, 0, 0, -2 -2" transform="rotate(-90,62,2)"/><rect x="64" y="0" width="4" height="4" transform="rotate(0,66,2)"/><rect x="32" y="4" width="4" height="4" transform="rotate(0,34,6)"/><rect x="36" y="4" width="4" height="4" transform="rotate(0,38,6)"/><path d="M 52 4v 4h 4v -2a 2 2, 0, 0, 0, -2 -2" transform="rotate(-90,54,6)"/><path d="M 56 4v 4h 4v -2a 2 2, 0, 0, 0, -2 -2" transform="rotate(90,58,6)"/><path d="M 64 4v 4h 4v -2a 2 2, 0, 0, 0, -2 -2" transform="rotate(90,66,6)"/><rect x="36" y="8" width="4" height="4" transform="rotate(0,38,10)"/><rect x="40" y="8" width="4" height="4" transform="rotate(0,42,10)"/><path d="M 52 8v 4h 4v -2a 2 2, 0, 0, 0, -2 -2" transform="rotate(90,54,10)"/><path d="M 60 8v 2a 2 2, 0, 0, 0, 2 2h 2v -2a 2 2, 0, 0, 0, -2 -2" transform="rotate(90,62,10)"/><rect x="36" y="12" width="4" height="4" transform="rotate(0,38,14)"/><rect x="40" y="12" width="4" height="4" transform="rotate(0,42,14)"/><rect x="44" y="12" width="4" height="4" transform="rotate(0,46,14)"/><path d="M 64 12v 4h 4v -2a 2 2, 0, 0, 0, -2 -2" transform="rotate(-90,66,14)"/><path d="M 44 16v 4h 4v -2a 2 2, 0, 0, 0, -2 -2" transform="rotate(90,46,18)"/><path d="M 60 16v 4h 4v -2a 2 2, 0, 0, 0, -2 -2" transform="rotate(-90,62,18)"/><path d="M 64 16v 4h 4v -2a 2 2, 0, 0, 0, -2 -2" transform="rotate(90,66,18)"/><path d="M 36 20v 4h 4v -2a 2 2, 0, 0, 0, -2 -2" transform="rotate(-90,38,22)"/><rect x="40" y="20" width="4" height="4" transform="rotate(0,42,22)"/><path d="M 48 20v 4h 4v -2a 2 2, 0, 0, 0, -2 -2" transform="rotate(-90,50,22)"/><path d="M 60 20v 4h 4v -2a 2 2, 0, 0, 0, -2 -2" transform="rotate(90,62,22)"/><path d="M 32 24v 2a 2 2, 0, 0, 0, 2 2h 2v -2a 2 2, 0, 0, 0, -2 -2" transform="rotate(90,34,26)"/><path d="M 40 24v 4h 4v -2a 2 2, 0, 0, 0, -2 -2" transform="rotate(90,42,26)"/><path d="M 48 24v 4h 4v -2a 2 2, 0, 0, 0, -2 -2" transform="rotate(90,50,26)"/><path d="M 56 24v 4h 4v -2a 2 2, 0, 0, 0, -2 -2" transform="rotate(-90,58,26)"/><path d="M 64 24v 4h 4v -2a 2 2, 0, 0, 0, -2 -2" transform="rotate(-90,66,26)"/><path d="M 36 28v 2a 2 2, 0, 0, 0, 2 2h 2v -2a 2 2, 0, 0, 0, -2 -2" transform="rotate(90,38,30)"/><rect x="56" y="28" width="4" height="4" transform="rotate(0,58,30)"/><rect x="60" y="28" width="4" height="4" transform="rotate(0,62,30)"/><rect x="64" y="28" width="4" height="4" transform="rotate(0,66,30)"/><path d="M 4 32v 4h 4v -2a 2 2, 0, 0, 0, -2 -2" transform="rotate(-90,6,34)"/><path d="M 24 32v 4h 4v -2a 2 2, 0, 0, 0, -2 -2" transform="rotate(-90,26,34)"/><rect x="28" y="32" width="4" height="4" transform="rotate(0,30,34)"/><rect x="32" y="32" width="4" height="4" transform="rotate(0,34,34)"/><path d="M 44 32v 4h 4v -2a 2 2, 0, 0, 0, -2 -2" transform="rotate(-90,46,34)"/><path d="M 48 32v 4h 4v -2a 2 2, 0, 0, 0, -2 -2" transform="rotate(90,50,34)"/><rect x="64" y="32" width="4" height="4" transform="rotate(0,66,34)"/><path d="M 68 32v 4h 4v -2a 2 2, 0, 0, 0, -2 -2" transform="rotate(90,70,34)"/><path d="M 92 32v 4h 4v -2a 2 2, 0, 0, 0, -2 -2" transform="rotate(-90,94,34)"/><path d="M 96 32v 4h 4v -2a 2 2, 0, 0, 0, -2 -2" transform="rotate(90,98,34)"/><path d="M 0 36v 4h 4v -2a 2 2, 0, 0, 0, -2 -2" transform="rotate(-90,2,38)"/><path d="M 4 36v 4h 4v -2a 2 2, 0, 0, 0, -2 -2" transform="rotate(90,6,38)"/><path d="M 16 36v 4h 4v -2a 2 2, 0, 0, 0, -2 -2" transform="rotate(-90,18,38)"/><path d="M 20 36v 4h 4v -2a 2 2, 0, 0, 0, -2 -2" transform="rotate(90,22,38)"/><rect x="28" y="36" width="4" height="4" transform="rotate(0,30,38)"/><path d="M 32 36v 4h 4v -2a 2 2, 0, 0, 0, -2 -2" transform="rotate(90,34,38)"/><path d="M 40 36v 2a 2 2, 0, 0, 0, 2 2h 2v -2a 2 2, 0, 0, 0, -2 -2" transform="rotate(90,42,38)"/><path d="M 52 36v 4h 4v -2a 2 2, 0, 0, 0, -2 -2" transform="rotate(-90,54,38)"/><rect x="64" y="36" width="4" height="4" transform="rotate(0,66,38)"/><path d="M 76 36v 4h 4v -2a 2 2, 0, 0, 0, -2 -2" transform="rotate(-90,78,38)"/><rect x="80" y="36" width="4" height="4" transform="rotate(0,82,38)"/><rect x="84" y="36" width="4" height="4" transform="rotate(0,86,38)"/><rect x="88" y="36" width="4" height="4" transform="rotate(0,90,38)"/><rect x="92" y="36" width="4" height="4" transform="rotate(0,94,38)"/><path d="M 8 40v 4h 4v -2a 2 2, 0, 0, 0, -2 -2" transform="rotate(-90,10,42)"/><rect x="12" y="40" width="4" height="4" transform="rotate(0,14,42)"/><rect x="16" y="40" width="4" height="4" transform="rotate(0,18,42)"/><path d="M 24 40v 4h 4v -2a 2 2, 0, 0, 0, -2 -2" transform="rotate(-90,26,42)"/><rect x="28" y="40" width="4" height="4" transform="rotate(0,30,42)"/><rect x="52" y="40" width="4" height="4" transform="rotate(0,54,42)"/><rect x="56" y="40" width="4" height="4" transform="rotate(0,58,42)"/><rect x="60" y="40" width="4" height="4" transform="rotate(0,62,42)"/><rect x="64" y="40" width="4" height="4" transform="rotate(0,66,42)"/><rect x="68" y="40" width="4" height="4" transform="rotate(0,70,42)"/><rect x="72" y="40" width="4" height="4" transform="rotate(0,74,42)"/><path d="M 76 40v 4h 4v -2a 2 2, 0, 0, 0, -2 -2" transform="rotate(90,78,42)"/><rect x="88" y="40" width="4" height="4" transform="rotate(0,90,42)"/><rect x="92" y="40" width="4" height="4" transform="rotate(0,94,42)"/><path d="M 96 40v 4h 4v -2a 2 2, 0, 0, 0, -2 -2" transform="rotate(90,98,42)"/><path d="M 0 44v 2a 2 2, 0, 0, 0, 2 2h 2v -2a 2 2, 0, 0, 0, -2 -2" transform="rotate(90,2,46)"/><rect x="16" y="44" width="4" height="4" transform="rotate(0,18,46)"/><path d="M 20 44v 4h 4v -2a 2 2, 0, 0, 0, -2 -2" transform="rotate(90,22,46)"/><path d="M 28 44v 4h 4v -2a 2 2, 0, 0, 0, -2 -2" transform="rotate(90,30,46)"/><path d="M 36 44v 4h 4v -2a 2 2, 0, 0, 0, -2 -2" transform="rotate(-90,38,46)"/><rect x="40" y="44" width="4" height="4" transform="rotate(0,42,46)"/><rect x="44" y="44" width="4" height="4" transform="rotate(0,46,46)"/><rect x="48" y="44" width="4" height="4" transform="rotate(0,50,46)"/><rect x="52" y="44" width="4" height="4" transform="rotate(0,54,46)"/><rect x="72" y="44" width="4" height="4" transform="rotate(0,74,46)"/><path d="M 92 44v 4h 4v -2a 2 2, 0, 0, 0, -2 -2" transform="rotate(90,94,46)"/><path d="M 12 48v 2a 2 2, 0, 0, 0, 2 2h 2v -2a 2 2, 0, 0, 0, -2 -2" transform="rotate(90,14,50)"/><path d="M 24 48v 2a 2 2, 0, 0, 0, 2 2h 2v -2a 2 2, 0, 0, 0, -2 -2" transform="rotate(90,26,50)"/><path d="M 32 48v 4h 4v -2a 2 2, 0, 0, 0, -2 -2" transform="rotate(-90,34,50)"/><rect x="48" y="48" width="4" height="4" transform="rotate(0,50,50)"/><path d="M 52 48v 4h 4v -2a 2 2, 0, 0, 0, -2 -2" transform="rotate(90,54,50)"/><path d="M 60 48v 4h 4v -2a 2 2, 0, 0, 0, -2 -2" transform="rotate(-90,62,50)"/><rect x="64" y="48" width="4" height="4" transform="rotate(0,66,50)"/><rect x="68" y="48" width="4" height="4" transform="rotate(0,70,50)"/><rect x="72" y="48" width="4" height="4" transform="rotate(0,74,50)"/><rect x="76" y="48" width="4" height="4" transform="rotate(0,78,50)"/><path d="M 84 48v 4h 4v -2a 2 2, 0, 0, 0, -2 -2" transform="rotate(-90,86,50)"/><path d="M 96 48v 2a 2 2, 0, 0, 0, 2 2h 2v -2a 2 2, 0, 0, 0, -2 -2" transform="rotate(90,98,50)"/><path d="M 0 52v 4h 4v -2a 2 2, 0, 0, 0, -2 -2" transform="rotate(-90,2,54)"/><path d="M 16 52v 2a 2 2, 0, 0, 0, 2 2h 2v -2a 2 2, 0, 0, 0, -2 -2" transform="rotate(90,18,54)"/><path d="M 32 52v 4h 4v -2a 2 2, 0, 0, 0, -2 -2" transform="rotate(90,34,54)"/><path d="M 44 52v 4h 4v -2a 2 2, 0, 0, 0, -2 -2" transform="rotate(-90,46,54)"/><path d="M 48 52v 4h 4v -2a 2 2, 0, 0, 0, -2 -2" transform="rotate(90,50,54)"/><path d="M 64 52v 4h 4v -2a 2 2, 0, 0, 0, -2 -2" transform="rotate(90,66,54)"/><rect x="76" y="52" width="4" height="4" transform="rotate(0,78,54)"/><rect x="84" y="52" width="4" height="4" transform="rotate(0,86,54)"/><rect x="88" y="52" width="4" height="4" transform="rotate(0,90,54)"/><rect x="92" y="52" width="4" height="4" transform="rotate(0,94,54)"/><rect x="0" y="56" width="4" height="4" transform="rotate(0,2,58)"/><path d="M 8 56v 2a 2 2, 0, 0, 0, 2 2h 2v -2a 2 2, 0, 0, 0, -2 -2" transform="rotate(90,10,58)"/><path d="M 24 56v 2a 2 2, 0, 0, 0, 2 2h 2v -2a 2 2, 0, 0, 0, -2 -2" transform="rotate(90,26,58)"/><path d="M 36 56v 4h 4v -2a 2 2, 0, 0, 0, -2 -2" transform="rotate(-90,38,58)"/><path d="M 40 56v 4h 4v -2a 2 2, 0, 0, 0, -2 -2" transform="rotate(90,42,58)"/><path d="M 52 56v 2a 2 2, 0, 0, 0, 2 2h 2v -2a 2 2, 0, 0, 0, -2 -2" transform="rotate(90,54,58)"/><path d="M 68 56v 2a 2 2, 0, 0, 0, 2 2h 2v -2a 2 2, 0, 0, 0, -2 -2" transform="rotate(90,70,58)"/><path d="M 76 56v 4h 4v -2a 2 2, 0, 0, 0, -2 -2" transform="rotate(90,78,58)"/><rect x="84" y="56" width="4" height="4" transform="rotate(0,86,58)"/><rect x="88" y="56" width="4" height="4" transform="rotate(0,90,58)"/><rect x="92" y="56" width="4" height="4" transform="rotate(0,94,58)"/><path d="M 96 56v 4h 4v -2a 2 2, 0, 0, 0, -2 -2" transform="rotate(90,98,58)"/><rect x="0" y="60" width="4" height="4" transform="rotate(0,2,62)"/><path d="M 12 60v 4h 4v -2a 2 2, 0, 0, 0, -2 -2" transform="rotate(-90,14,62)"/><path d="M 16 60v 4h 4v -2a 2 2, 0, 0, 0, -2 -2" transform="rotate(90,18,62)"/><path d="M 28 60v 4h 4v -2a 2 2, 0, 0, 0, -2 -2" transform="rotate(-90,30,62)"/><rect x="32" y="60" width="4" height="4" transform="rotate(0,34,62)"/><path d="M 36 60v 4h 4v -2a 2 2, 0, 0, 0, -2 -2" transform="rotate(90,38,62)"/><path d="M 44 60v 2a 2 2, 0, 0, 0, 2 2h 2v -2a 2 2, 0, 0, 0, -2 -2" transform="rotate(90,46,62)"/><path d="M 60 60v 2a 2 2, 0, 0, 0, 2 2h 2v -2a 2 2, 0, 0, 0, -2 -2" transform="rotate(90,62,62)"/><rect x="84" y="60" width="4" height="4" transform="rotate(0,86,62)"/><rect x="88" y="60" width="4" height="4" transform="rotate(0,90,62)"/><rect x="92" y="60" width="4" height="4" transform="rotate(0,94,62)"/><path d="M 0 64v 4h 4v -2a 2 2, 0, 0, 0, -2 -2" transform="rotate(90,2,66)"/><path d="M 8 64v 2a 2 2, 0, 0, 0, 2 2h 2v -2a 2 2, 0, 0, 0, -2 -2" transform="rotate(90,10,66)"/><path d="M 24 64v 4h 4v -2a 2 2, 0, 0, 0, -2 -2" transform="rotate(-90,26,66)"/><rect x="28" y="64" width="4" height="4" transform="rotate(0,30,66)"/><rect x="32" y="64" width="4" height="4" transform="rotate(0,34,66)"/><path d="M 40 64v 4h 4v -2a 2 2, 0, 0, 0, -2 -2" transform="rotate(-90,42,66)"/><path d="M 48 64v 4h 4v -2a 2 2, 0, 0, 0, -2 -2" transform="rotate(-90,50,66)"/><path d="M 52 64v 4h 4v -2a 2 2, 0, 0, 0, -2 -2" transform="rotate(90,54,66)"/><path d="M 64 64v 4h 4v -2a 2 2, 0, 0, 0, -2 -2" transform="rotate(-90,66,66)"/><rect x="68" y="64" width="4" height="4" transform="rotate(0,70,66)"/><rect x="72" y="64" width="4" height="4" transform="rotate(0,74,66)"/><rect x="76" y="64" width="4" height="4" transform="rotate(0,78,66)"/><rect x="80" y="64" width="4" height="4" transform="rotate(0,82,66)"/><rect x="84" y="64" width="4" height="4" transform="rotate(0,86,66)"/><rect x="88" y="64" width="4" height="4" transform="rotate(0,90,66)"/><rect x="92" y="64" width="4" height="4" transform="rotate(0,94,66)"/><path d="M 96 64v 4h 4v -2a 2 2, 0, 0, 0, -2 -2" transform="rotate(90,98,66)"/><rect x="32" y="68" width="4" height="4" transform="rotate(0,34,70)"/><rect x="40" y="68" width="4" height="4" transform="rotate(0,42,70)"/><rect x="64" y="68" width="4" height="4" transform="rotate(0,66,70)"/><rect x="80" y="68" width="4" height="4" transform="rotate(0,82,70)"/><rect x="84" y="68" width="4" height="4" transform="rotate(0,86,70)"/><path d="M 92 68v 4h 4v -2a 2 2, 0, 0, 0, -2 -2" transform="rotate(90,94,70)"/><rect x="32" y="72" width="4" height="4" transform="rotate(0,34,74)"/><rect x="36" y="72" width="4" height="4" transform="rotate(0,38,74)"/><path d="M 40 72v 4h 4v -2a 2 2, 0, 0, 0, -2 -2" transform="rotate(90,42,74)"/><path d="M 60 72v 4h 4v -2a 2 2, 0, 0, 0, -2 -2" transform="rotate(-90,62,74)"/><rect x="64" y="72" width="4" height="4" transform="rotate(0,66,74)"/><path d="M 72 72v 2a 2 2, 0, 0, 0, 2 2h 2v -2a 2 2, 0, 0, 0, -2 -2" transform="rotate(90,74,74)"/><rect x="80" y="72" width="4" height="4" transform="rotate(0,82,74)"/><rect x="84" y="72" width="4" height="4" transform="rotate(0,86,74)"/><path d="M 88 72v 4h 4v -2a 2 2, 0, 0, 0, -2 -2" transform="rotate(90,90,74)"/><path d="M 96 72v 4h 4v -2a 2 2, 0, 0, 0, -2 -2" transform="rotate(-90,98,74)"/><rect x="36" y="76" width="4" height="4" transform="rotate(0,38,78)"/><path d="M 44 76v 2a 2 2, 0, 0, 0, 2 2h 2v -2a 2 2, 0, 0, 0, -2 -2" transform="rotate(90,46,78)"/><path d="M 52 76v 2a 2 2, 0, 0, 0, 2 2h 2v -2a 2 2, 0, 0, 0, -2 -2" transform="rotate(90,54,78)"/><rect x="64" y="76" width="4" height="4" transform="rotate(0,66,78)"/><rect x="80" y="76" width="4" height="4" transform="rotate(0,82,78)"/><rect x="84" y="76" width="4" height="4" transform="rotate(0,86,78)"/><path d="M 92 76v 4h 4v -2a 2 2, 0, 0, 0, -2 -2" transform="rotate(-90,94,78)"/><path d="M 96 76v 4h 4v -2a 2 2, 0, 0, 0, -2 -2" transform="rotate(90,98,78)"/><rect x="36" y="80" width="4" height="4" transform="rotate(0,38,82)"/><path d="M 40 80v 4h 4v -2a 2 2, 0, 0, 0, -2 -2" transform="rotate(90,42,82)"/><path d="M 48 80v 2a 2 2, 0, 0, 0, 2 2h 2v -2a 2 2, 0, 0, 0, -2 -2" transform="rotate(90,50,82)"/><path d="M 56 80v 4h 4v -2a 2 2, 0, 0, 0, -2 -2" transform="rotate(-90,58,82)"/><rect x="60" y="80" width="4" height="4" transform="rotate(0,62,82)"/><rect x="64" y="80" width="4" height="4" transform="rotate(0,66,82)"/><rect x="68" y="80" width="4" height="4" transform="rotate(0,70,82)"/><rect x="72" y="80" width="4" height="4" transform="rotate(0,74,82)"/><rect x="76" y="80" width="4" height="4" transform="rotate(0,78,82)"/><rect x="80" y="80" width="4" height="4" transform="rotate(0,82,82)"/><rect x="84" y="80" width="4" height="4" transform="rotate(0,86,82)"/><rect x="88" y="80" width="4" height="4" transform="rotate(0,90,82)"/><path d="M 92 80v 4h 4v -2a 2 2, 0, 0, 0, -2 -2" transform="rotate(90,94,82)"/><rect x="36" y="84" width="4" height="4" transform="rotate(0,38,86)"/><path d="M 52 84v 4h 4v -2a 2 2, 0, 0, 0, -2 -2" transform="rotate(-90,54,86)"/><path d="M 56 84v 4h 4v -2a 2 2, 0, 0, 0, -2 -2" transform="rotate(90,58,86)"/><rect x="68" y="84" width="4" height="4" transform="rotate(0,70,86)"/><rect x="72" y="84" width="4" height="4" transform="rotate(0,74,86)"/><rect x="76" y="84" width="4" height="4" transform="rotate(0,78,86)"/><path d="M 96 84v 4h 4v -2a 2 2, 0, 0, 0, -2 -2" transform="rotate(-90,98,86)"/><path d="M 36 88v 4h 4v -2a 2 2, 0, 0, 0, -2 -2" transform="rotate(90,38,90)"/><path d="M 52 88v 4h 4v -2a 2 2, 0, 0, 0, -2 -2" transform="rotate(90,54,90)"/><path d="M 60 88v 4h 4v -2a 2 2, 0, 0, 0, -2 -2" transform="rotate(-90,62,90)"/><path d="M 76 88v 4h 4v -2a 2 2, 0, 0, 0, -2 -2" transform="rotate(90,78,90)"/><rect x="96" y="88" width="4" height="4" transform="rotate(0,98,90)"/><path d="M 32 92v 2a 2 2, 0, 0, 0, 2 2h 2v -2a 2 2, 0, 0, 0, -2 -2" transform="rotate(90,34,94)"/><path d="M 40 92v 4h 4v -2a 2 2, 0, 0, 0, -2 -2" transform="rotate(-90,42,94)"/><rect x="60" y="92" width="4" height="4" transform="rotate(0,62,94)"/><rect x="64" y="92" width="4" height="4" transform="rotate(0,66,94)"/><rect x="68" y="92" width="4" height="4" transform="rotate(0,70,94)"/><path d="M 72 92v 4h 4v -2a 2 2, 0, 0, 0, -2 -2" transform="rotate(90,74,94)"/><path d="M 80 92v 4h 4v -2a 2 2, 0, 0, 0, -2 -2" transform="rotate(-90,82,94)"/><rect x="84" y="92" width="4" height="4" transform="rotate(0,86,94)"/><rect x="96" y="92" width="4" height="4" transform="rotate(0,98,94)"/><path d="M 40 96v 4h 4v -2a 2 2, 0, 0, 0, -2 -2" transform="rotate(90,42,98)"/><path d="M 52 96v 4h 4v -2a 2 2, 0, 0, 0, -2 -2" transform="rotate(-90,54,98)"/><path d="M 56 96v 4h 4v -2a 2 2, 0, 0, 0, -2 -2" transform="rotate(90,58,98)"/><rect x="64" y="96" width="4" height="4" transform="rotate(0,66,98)"/><path d="M 68 96v 4h 4v -2a 2 2, 0, 0, 0, -2 -2" transform="rotate(90,70,98)"/><path d="M 84 96v 4h 4v -2a 2 2, 0, 0, 0, -2 -2" transform="rotate(90,86,98)"/><path d="M 96 96v 4h 4v -2a 2 2, 0, 0, 0, -2 -2" transform="rotate(90,98,98)"/></g><g class="corners-square-color-0-0"><path d="M 0 0v 4h 4v -2a 2 2, 0, 0, 0, -2 -2" transform="rotate(-90,2,2)"/><rect x="0" y="4" width="4" height="4" transform="rotate(0,2,6)"/><rect x="0" y="8" width="4" height="4" transform="rotate(0,2,10)"/><rect x="0" y="12" width="4" height="4" transform="rotate(0,2,14)"/><rect x="0" y="16" width="4" height="4" transform="rotate(0,2,18)"/><rect x="0" y="20" width="4" height="4" transform="rotate(0,2,22)"/><rect x="0" y="24" width="4" height="4" transform="rotate(0,2,26)"/><rect x="4" y="0" width="4" height="4" transform="rotate(0,6,2)"/><rect x="4" y="24" width="4" height="4" transform="rotate(0,6,26)"/><rect x="8" y="0" width="4" height="4" transform="rotate(0,10,2)"/><rect x="8" y="24" width="4" height="4" transform="rotate(0,10,26)"/><rect x="12" y="0" width="4" height="4" transform="rotate(0,14,2)"/><rect x="12" y="24" width="4" height="4" transform="rotate(0,14,26)"/><rect x="16" y="0" width="4" height="4" transform="rotate(0,18,2)"/><rect x="16" y="24" width="4" height="4" transform="rotate(0,18,26)"/><rect x="20" y="0" width="4" height="4" transform="rotate(0,22,2)"/><rect x="20" y="24" width="4" height="4" transform="rotate(0,22,26)"/><rect x="24" y="0" width="4" height="4" transform="rotate(0,26,2)"/><rect x="24" y="4" width="4" height="4" transform="rotate(0,26,6)"/><rect x="24" y="8" width="4" height="4" transform="rotate(0,26,10)"/><rect x="24" y="12" width="4" height="4" transform="rotate(0,26,14)"/><rect x="24" y="16" width="4" height="4" transform="rotate(0,26,18)"/><rect x="24" y="20" width="4" height="4" transform="rotate(0,26,22)"/><path d="M 24 24v 4h 4v -2a 2 2, 0, 0, 0, -2 -2" transform="rotate(90,26,26)"/></g><g class="corners-dot-color-0-0"><path d="M 8 8v 4h 4v -2a 2 2, 0, 0, 0, -2 -2" transform="rotate(-90,10,10)"/><rect x="8" y="12" width="4" height="4" transform="rotate(0,10,14)"/><rect x="8" y="16" width="4" height="4" transform="rotate(0,10,18)"/><rect x="12" y="8" width="4" height="4" transform="rotate(0,14,10)"/><rect x="12" y="12" width="4" height="4" transform="rotate(0,14,14)"/><rect x="12" y="16" width="4" height="4" transform="rotate(0,14,18)"/><rect x="16" y="8" width="4" height="4" transform="rotate(0,18,10)"/><rect x="16" y="12" width="4" height="4" transform="rotate(0,18,14)"/><path d="M 16 16v 4h 4v -2a 2 2, 0, 0, 0, -2 -2" transform="rotate(90,18,18)"/></g><g class="corners-square-color-1-0"><path d="M 72 0v 4h 4v -2a 2 2, 0, 0, 0, -2 -2" transform="rotate(-90,74,2)"/><rect x="72" y="4" width="4" height="4" transform="rotate(0,74,6)"/><rect x="72" y="8" width="4" height="4" transform="rotate(0,74,10)"/><rect x="72" y="12" width="4" height="4" transform="rotate(0,74,14)"/><rect x="72" y="16" width="4" height="4" transform="rotate(0,74,18)"/><rect x="72" y="20" width="4" height="4" transform="rotate(0,74,22)"/><rect x="72" y="24" width="4" height="4" transform="rotate(0,74,26)"/><rect x="76" y="0" width="4" height="4" transform="rotate(0,78,2)"/><rect x="76" y="24" width="4" height="4" transform="rotate(0,78,26)"/><rect x="80" y="0" width="4" height="4" transform="rotate(0,82,2)"/><rect x="80" y="24" width="4" height="4" transform="rotate(0,82,26)"/><rect x="84" y="0" width="4" height="4" transform="rotate(0,86,2)"/><rect x="84" y="24" width="4" height="4" transform="rotate(0,86,26)"/><rect x="88" y="0" width="4" height="4" transform="rotate(0,90,2)"/><rect x="88" y="24" width="4" height="4" transform="rotate(0,90,26)"/><rect x="92" y="0" width="4" height="4" transform="rotate(0,94,2)"/><rect x="92" y="24" width="4" height="4" transform="rotate(0,94,26)"/><rect x="96" y="0" width="4" height="4" transform="rotate(0,98,2)"/><rect x="96" y="4" width="4" height="4" transform="rotate(0,98,6)"/><rect x="96" y="8" width="4" height="4" transform="rotate(0,98,10)"/><rect x="96" y="12" width="4" height="4" transform="rotate(0,98,14)"/><rect x="96" y="16" width="4" height="4" transform="rotate(0,98,18)"/><rect x="96" y="20" width="4" height="4" transform="rotate(0,98,22)"/><path d="M 96 24v 4h 4v -2a 2 2, 0, 0, 0, -2 -2" transform="rotate(90,98,26)"/></g><g class="corners-dot-color-1-0"><path d="M 80 8v 4h 4v -2a 2 2, 0, 0, 0, -2 -2" transform="rotate(-90,82,10)"/><rect x="80" y="12" width="4" height="4" transform="rotate(0,82,14)"/><rect x="80" y="16" width="4" height="4" transform="rotate(0,82,18)"/><rect x="84" y="8" width="4" height="4" transform="rotate(0,86,10)"/><rect x="84" y="12" width="4" height="4" transform="rotate(0,86,14)"/><rect x="84" y="16" width="4" height="4" transform="rotate(0,86,18)"/><rect x="88" y="8" width="4" height="4" transform="rotate(0,90,10)"/><rect x="88" y="12" width="4" height="4" transform="rotate(0,90,14)"/><path d="M 88 16v 4h 4v -2a 2 2, 0, 0, 0, -2 -2" transform="rotate(90,90,18)"/></g><g class="corners-square-color-0-1"><path d="M 0 72v 4h 4v -2a 2 2, 0, 0, 0, -2 -2" transform="rotate(-90,2,74)"/><rect x="0" y="76" width="4" height="4" transform="rotate(0,2,78)"/><rect x="0" y="80" width="4" height="4" transform="rotate(0,2,82)"/><rect x="0" y="84" width="4" height="4" transform="rotate(0,2,86)"/><rect x="0" y="88" width="4" height="4" transform="rotate(0,2,90)"/><rect x="0" y="92" width="4" height="4" transform="rotate(0,2,94)"/><rect x="0" y="96" width="4" height="4" transform="rotate(0,2,98)"/><rect x="4" y="72" width="4" height="4" transform="rotate(0,6,74)"/><rect x="4" y="96" width="4" height="4" transform="rotate(0,6,98)"/><rect x="8" y="72" width="4" height="4" transform="rotate(0,10,74)"/><rect x="8" y="96" width="4" height="4" transform="rotate(0,10,98)"/><rect x="12" y="72" width="4" height="4" transform="rotate(0,14,74)"/><rect x="12" y="96" width="4" height="4" transform="rotate(0,14,98)"/><rect x="16" y="72" width="4" height="4" transform="rotate(0,18,74)"/><rect x="16" y="96" width="4" height="4" transform="rotate(0,18,98)"/><rect x="20" y="72" width="4" height="4" transform="rotate(0,22,74)"/><rect x="20" y="96" width="4" height="4" transform="rotate(0,22,98)"/><rect x="24" y="72" width="4" height="4" transform="rotate(0,26,74)"/><rect x="24" y="76" width="4" height="4" transform="rotate(0,26,78)"/><rect x="24" y="80" width="4" height="4" transform="rotate(0,26,82)"/><rect x="24" y="84" width="4" height="4" transform="rotate(0,26,86)"/><rect x="24" y="88" width="4" height="4" transform="rotate(0,26,90)"/><rect x="24" y="92" width="4" height="4" transform="rotate(0,26,94)"/><path d="M 24 96v 4h 4v -2a 2 2, 0, 0, 0, -2 -2" transform="rotate(90,26,98)"/></g><g class="corners-dot-color-0-1"><path d="M 8 80v 4h 4v -2a 2 2, 0, 0, 0, -2 -2" transform="rotate(-90,10,82)"/><rect x="8" y="84" width="4" height="4" transform="rotate(0,10,86)"/><rect x="8" y="88" width="4" height="4" transform="rotate(0,10,90)"/><rect x="12" y="80" width="4" height="4" transform="rotate(0,14,82)"/><rect x="12" y="84" width="4" height="4" transform="rotate(0,14,86)"/><rect x="12" y="88" width="4" height="4" transform="rotate(0,14,90)"/><rect x="16" y="80" width="4" height="4" transform="rotate(0,18,82)"/><rect x="16" y="84" width="4" height="4" transform="rotate(0,18,86)"/><path d="M 16 88v 4h 4v -2a 2 2, 0, 0, 0, -2 -2" transform="rotate(90,18,90)"/></g></svg>