<?xml version="1.0" standalone="no"?>
<svg xmlns="http://www.w3.org/2000/svg" width="100" height="100" xmlns:xlink="http://www.w3.org/1999/xlink"><style>.background-color{ fill: #ffffff; }.dot-color{ fill: #000000; }.corners-square-color-0-0{ fill: undefined; }.corners-dot-color-0-0{ fill: undefined; }.corners-square-color-1-0{ fill: undefined; }.corners-dot-color-1-0{ fill: undefined; }.corners-square-color-0-1{ fill: undefined; }.corners-dot-color-0-1{ fill: undefined; }</style><defs/><g class="dot-color"><circle cx="34" cy="2" r="2" transform="rotate(0,34,2)"/><circle cx="38" cy="2" r="2" transform="rotate(0,38,2)"/><circle cx="42" cy="2" r="2" transform="rotate(0,42,2)"/><circle cx="50" cy="2" r="2" transform="rotate(0,50,2)"/><circle cx="62" cy="2" r="2" transform="rotate(0,62,2)"/><circle cx="66" cy="2" r="2" transform="rotate(0,66,2)"/><circle cx="34" cy="6" r="2" transform="rotate(0,34,6)"/><circle cx="38" cy="6" r="2" transform="rotate(0,38,6)"/><circle cx="54" cy="6" r="2" transform="rotate(0,54,6)"/><circle cx="58" cy="6" r="2" transform="rotate(0,58,6)"/><circle cx="66" cy="6" r="2" transform="rotate(0,66,6)"/><circle cx="38" cy="10" r="2" transform="rotate(0,38,10)"/><circle cx="42" cy="10" r="2" transform="rotate(0,42,10)"/><circle cx="54" cy="10" r="2" transform="rotate(0,54,10)"/><circle cx="62" cy="10" r="2" transform="rotate(0,62,10)"/><circle cx="38" cy="14" r="2" transform="rotate(0,38,14)"/><circle cx="42" cy="14" r="2" transform="rotate(0,42,14)"/><circle cx="46" cy="14" r="2" transform="rotate(0,46,14)"/><circle cx="66" cy="14" r="2" transform="rotate(0,66,14)"/><circle cx="46" cy="18" r="2" transform="rotate(0,46,18)"/><circle cx="62" cy="18" r="2" transform="rotate(0,62,18)"/><circle cx="66" cy="18" r="2" transform="rotate(0,66,18)"/><circle cx="38" cy="22" r="2" transform="rotate(0,38,22)"/><circle cx="42" cy="22" r="2" transform="rotate(0,42,22)"/><circle cx="50" cy="22" r="2" transform="rotate(0,50,22)"/><circle cx="62" cy="22" r="2" transform="rotate(0,62,22)"/><circle cx="34" cy="26" r="2" transform="rotate(0,34,26)"/><circle cx="42" cy="26" r="2" transform="rotate(0,42,26)"/><circle cx="50" cy="26" r="2" transform="rotate(0,50,26)"/><circle cx="58" cy="26" r="2" transform="rotate(0,58,26)"/><circle cx="66" cy="26" r="2" transform="rotate(0,66,26)"/><circle cx="38" cy="30" r="2" transform="rotate(0,38,30)"/><circle cx="58" cy="30" r="2" transform="rotate(0,58,30)"/><circle cx="62" cy="30" r="2" transform="rotate(0,62,30)"/><circle cx="66" cy="30" r="2" transform="rotate(0,66,30)"/><circle cx="6" cy="34" r="2" transform="rotate(0,6,34)"/><circle cx="26" cy="34" r="2" transform="rotate(0,26,34)"/><circle cx="30" cy="34" r="2" transform="rotate(0,30,34)"/><circle cx="34" cy="34" r="2" transform="rotate(0,34,34)"/><circle cx="46" cy="34" r="2" transform="rotate(0,46,34)"/><circle cx="50" cy="34" r="2" transform="rotate(0,50,34)"/><circle cx="66" cy="34" r="2" transform="rotate(0,66,34)"/><circle cx="70" cy="34" r="2" transform="rotate(0,70,34)"/><circle cx="94" cy="34" r="2" transform="rotate(0,94,34)"/><circle cx="98" cy="34" r="2" transform="rotate(0,98,34)"/><circle cx="2" cy="38" r="2" transform="rotate(0,2,38)"/><circle cx="6" cy="38" r="2" transform="rotate(0,6,38)"/><circle cx="18" cy="38" r="2" transform="rotate(0,18,38)"/><circle cx="22" cy="38" r="2" transform="rotate(0,22,38)"/><circle cx="30" cy="38" r="2" transform="rotate(0,30,38)"/><circle cx="34" cy="38" r="2" transform="rotate(0,34,38)"/><circle cx="42" cy="38" r="2" transform="rotate(0,42,38)"/><circle cx="54" cy="38" r="2" transform="rotate(0,54,38)"/><circle cx="66" cy="38" r="2" transform="rotate(0,66,38)"/><circle cx="78" cy="38" r="2" transform="rotate(0,78,38)"/><circle cx="82" cy="38" r="2" transform="rotate(0,82,38)"/><circle cx="86" cy="38" r="2" transform="rotate(0,86,38)"/><circle cx="90" cy="38" r="2" transform="rotate(0,90,38)"/><circle cx="94" cy="38" r="2" transform="rotate(0,94,38)"/><circle cx="10" cy="42" r="2" transform="rotate(0,10,42)"/><circle cx="14" cy="42" r="2" transform="rotate(0,14,42)"/><circle cx="18" cy="42" r="2" transform="rotate(0,18,42)"/><circle cx="26" cy="42" r="2" transform="rotate(0,26,42)"/><circle cx="30" cy="42" r="2" transform="rotate(0,30,42)"/><circle cx="54" cy="42" r="2" transform="rotate(0,54,42)"/><circle cx="58" cy="42" r="2" transform="rotate(0,58,42)"/><circle cx="62" cy="42" r="2" transform="rotate(0,62,42)"/><circle cx="66" cy="42" r="2" transform="rotate(0,66,42)"/><circle cx="70" cy="42" r="2" transform="rotate(0,70,42)"/><circle cx="74" cy="42" r="2" transform="rotate(0,74,42)"/><circle cx="78" cy="42" r="2" transform="rotate(0,78,42)"/><circle cx="90" cy="42" r="2" transform="rotate(0,90,42)"/><circle cx="94" cy="42" r="2" transform="rotate(0,94,42)"/><circle cx="98" cy="42" r="2" transform="rotate(0,98,42)"/><circle cx="2" cy="46" r="2" transform="rotate(0,2,46)"/><circle cx="18" cy="46" r="2" transform="rotate(0,18,46)"/><circle cx="22" cy="46" r="2" transform="rotate(0,22,46)"/><circle cx="30" cy="46" r="2" transform="rotate(0,30,46)"/><circle cx="38" cy="46" r="2" transform="rotate(0,38,46)"/><circle cx="42" cy="46" r="2" transform="rotate(0,42,46)"/><circle cx="46" cy="46" r="2" transform="rotate(0,46,46)"/><circle cx="50" cy="46" r="2" transform="rotate(0,50,46)"/><circle cx="54" cy="46" r="2" transform="rotate(0,54,46)"/><circle cx="74" cy="46" r="2" transform="rotate(0,74,46)"/><circle cx="94" cy="46" r="2" transform="rotate(0,94,46)"/><circle cx="14" cy="50" r="2" transform="rotate(0,14,50)"/><circle cx="26" cy="50" r="2" transform="rotate(0,26,50)"/><circle cx="34" cy="50" r="2" transform="rotate(0,34,50)"/><circle cx="50" cy="50" r="2" transform="rotate(0,50,50)"/><circle cx="54" cy="50" r="2" transform="rotate(0,54,50)"/><circle cx="62" cy="50" r="2" transform="rotate(0,62,50)"/><circle cx="66" cy="50" r="2" transform="rotate(0,66,50)"/><circle cx="70" cy="50" r="2" transform="rotate(0,70,50)"/><circle cx="74" cy="50" r="2" transform="rotate(0,74,50)"/><circle cx="78" cy="50" r="2" transform="rotate(0,78,50)"/><circle cx="86" cy="50" r="2" transform="rotate(0,86,50)"/><circle cx="98" cy="50" r="2" transform="rotate(0,98,50)"/><circle cx="2" cy="54" r="2" transform="rotate(0,2,54)"/><circle cx="18" cy="54" r="2" transform="rotate(0,18,54)"/><circle cx="34" cy="54" r="2" transform="rotate(0,34,54)"/><circle cx="46" cy="54" r="2" transform="rotate(0,46,54)"/><circle cx="50" cy="54" r="2" transform="rotate(0,50,54)"/><circle cx="66" cy="54" r="2" transform="rotate(0,66,54)"/><circle cx="78" cy="54" r="2" transform="rotate(0,78,54)"/><circle cx="86" cy="54" r="2" transform="rotate(0,86,54)"/><circle cx="90" cy="54" r="2" transform="rotate(0,90,54)"/><circle cx="94" cy="54" r="2" transform="rotate(0,94,54)"/><circle cx="2" cy="58" r="2" transform="rotate(0,2,58)"/><circle cx="10" cy="58" r="2" transform="rotate(0,10,58)"/><circle cx="26" cy="58" r="2" transform="rotate(0,26,58)"/><circle cx="38" cy="58" r="2" transform="rotate(0,38,58)"/><circle cx="42" cy="58" r="2" transform="rotate(0,42,58)"/><circle cx="54" cy="58" r="2" transform="rotate(0,54,58)"/><circle cx="70" cy="58" r="2" transform="rotate(0,70,58)"/><circle cx="78" cy="58" r="2" transform="rotate(0,78,58)"/><circle cx="86" cy="58" r="2" transform="rotate(0,86,58)"/><circle cx="90" cy="58" r="2" transform="rotate(0,90,58)"/><circle cx="94" cy="58" r="2" transform="rotate(0,94,58)"/><circle cx="98" cy="58" r="2" transform="rotate(0,98,58)"/><circle cx="2" cy="62" r="2" transform="rotate(0,2,62)"/><circle cx="14" cy="62" r="2" transform="rotate(0,14,62)"/><circle cx="18" cy="62" r="2" transform="rotate(0,18,62)"/><circle cx="30" cy="62" r="2" transform="rotate(0,30,62)"/><circle cx="34" cy="62" r="2" transform="rotate(0,34,62)"/><circle cx="38" cy="62" r="2" transform="rotate(0,38,62)"/><circle cx="46" cy="62" r="2" transform="rotate(0,46,62)"/><circle cx="62" cy="62" r="2" transform="rotate(0,62,62)"/><circle cx="86" cy="62" r="2" transform="rotate(0,86,62)"/><circle cx="90" cy="62" r="2" transform="rotate(0,90,62)"/><circle cx="94" cy="62" r="2" transform="rotate(0,94,62)"/><circle cx="2" cy="66" r="2" transform="rotate(0,2,66)"/><circle cx="10" cy="66" r="2" transform="rotate(0,10,66)"/><circle cx="26" cy="66" r="2" transform="rotate(0,26,66)"/><circle cx="30" cy="66" r="2" transform="rotate(0,30,66)"/><circle cx="34" cy="66" r="2" transform="rotate(0,34,66)"/><circle cx="42" cy="66" r="2" transform="rotate(0,42,66)"/><circle cx="50" cy="66" r="2" transform="rotate(0,50,66)"/><circle cx="54" cy="66" r="2" transform="rotate(0,54,66)"/><circle cx="66" cy="66" r="2" transform="rotate(0,66,66)"/><circle cx="70" cy="66" r="2" transform="rotate(0,70,66)"/><circle cx="74" cy="66" r="2" transform="rotate(0,74,66)"/><circle cx="78" cy="66" r="2" transform="rotate(0,78,66)"/><circle cx="82" cy="66" r="2" transform="rotate(0,82,66)"/><circle cx="86" cy="66" r="2" transform="rotate(0,86,66)"/><circle cx="90" cy="66" r="2" transform="rotate(0,90,66)"/><circle cx="94" cy="66" r="2" transform="rotate(0,94,66)"/><circle cx="98" cy="66" r="2" transform="rotate(0,98,66)"/><circle cx="34" cy="70" r="2" transform="rotate(0,34,70)"/><circle cx="42" cy="70" r="2" transform="rotate(0,42,70)"/><circle cx="66" cy="70" r="2" transform="rotate(0,66,70)"/><circle cx="82" cy="70" r="2" transform="rotate(0,82,70)"/><circle cx="86" cy="70" r="2" transform="rotate(0,86,70)"/><circle cx="94" cy="70" r="2" transform="rotate(0,94,70)"/><circle cx="34" cy="74" r="2" transform="rotate(0,34,74)"/><circle cx="38" cy="74" r="2" transform="rotate(0,38,74)"/><circle cx="42" cy="74" r="2" transform="rotate(0,42,74)"/><circle cx="62" cy="74" r="2" transform="rotate(0,62,74)"/><circle cx="66" cy="74" r="2" transform="rotate(0,66,74)"/><circle cx="74" cy="74" r="2" transform="rotate(0,74,74)"/><circle cx="82" cy="74" r="2" transform="rotate(0,82,74)"/><circle cx="86" cy="74" r="2" transform="rotate(0,86,74)"/><circle cx="90" cy="74" r="2" transform="rotate(0,90,74)"/><circle cx="98" cy="74" r="2" transform="rotate(0,98,74)"/><circle cx="38" cy="78" r="2" transform="rotate(0,38,78)"/><circle cx="46" cy="78" r="2" transform="rotate(0,46,78)"/><circle cx="54" cy="78" r="2" transform="rotate(0,54,78)"/><circle cx="66" cy="78" r="2" transform="rotate(0,66,78)"/><circle cx="82" cy="78" r="2" transform="rotate(0,82,78)"/><circle cx="86" cy="78" r="2" transform="rotate(0,86,78)"/><circle cx="94" cy="78" r="2" transform="rotate(0,94,78)"/><circle cx="98" cy="78" r="2" transform="rotate(0,98,78)"/><circle cx="38" cy="82" r="2" transform="rotate(0,38,82)"/><circle cx="42" cy="82" r="2" transform="rotate(0,42,82)"/><circle cx="50" cy="82" r="2" transform="rotate(0,50,82)"/><circle cx="58" cy="82" r="2" transform="rotate(0,58,82)"/><circle cx="62" cy="82" r="2" transform="rotate(0,62,82)"/><circle cx="66" cy="82" r="2" transform="rotate(0,66,82)"/><circle cx="70" cy="82" r="2" transform="rotate(0,70,82)"/><circle cx="74" cy="82" r="2" transform="rotate(0,74,82)"/><circle cx="78" cy="82" r="2" transform="rotate(0,78,82)"/><circle cx="82" cy="82" r="2" transform="rotate(0,82,82)"/><circle cx="86" cy="82" r="2" transform="rotate(0,86,82)"/><circle cx="90" cy="82" r="2" transform="rotate(0,90,82)"/><circle cx="94" cy="82" r="2" transform="rotate(0,94,82)"/><circle cx="38" cy="86" r="2" transform="rotate(0,38,86)"/><circle cx="54" cy="86" r="2" transform="rotate(0,54,86)"/><circle cx="58" cy="86" r="2" transform="rotate(0,58,86)"/><circle cx="70" cy="86" r="2" transform="rotate(0,70,86)"/><circle cx="74" cy="86" r="2" transform="rotate(0,74,86)"/><circle cx="78" cy="86" r="2" transform="rotate(0,78,86)"/><circle cx="98" cy="86" r="2" transform="rotate(0,98,86)"/><circle cx="38" cy="90" r="2" transform="rotate(0,38,90)"/><circle cx="54" cy="90" r="2" transform="rotate(0,54,90)"/><circle cx="62" cy="90" r="2" transform="rotate(0,62,90)"/><circle cx="78" cy="90" r="2" transform="rotate(0,78,90)"/><circle cx="98" cy="90" r="2" transform="rotate(0,98,90)"/><circle cx="34" cy="94" r="2" transform="rotate(0,34,94)"/><circle cx="42" cy="94" r="2" transform="rotate(0,42,94)"/><circle cx="62" cy="94" r="2" transform="rotate(0,62,94)"/><circle cx="66" cy="94" r="2" transform="rotate(0,66,94)"/><circle cx="70" cy="94" r="2" transform="rotate(0,70,94)"/><circle cx="74" cy="94" r="2" transform="rotate(0,74,94)"/><circle cx="82" cy="94" r="2" transform="rotate(0,82,94)"/><circle cx="86" cy="94" r="2" transform="rotate(0,86,94)"/><circle cx="98" cy="94" r="2" transform="rotate(0,98,94)"/><circle cx="42" cy="98" r="2" transform="rotate(0,42,98)"/><circle cx="54" cy="98" r="2" transform="rotate(0,54,98)"/><circle cx="58" cy="98" r="2" transform="rotate(0,58,98)"/><circle cx="66" cy="98" r="2" transform="rotate(0,66,98)"/><circle cx="70" cy="98" r="2" transform="rotate(0,70,98)"/><circle cx="86" cy="98" r="2" transform="rotate(0,86,98)"/><circle cx="98" cy="98" r="2" transform="rotate(0,98,98)"/></g><g class="corners-square-color-0-0"><circle cx="2" cy="2" r="2" transform="rotate(0,2,2)"/><circle cx="2" cy="6" r="2" transform="rotate(0,2,6)"/><circle cx="2" cy="10" r="2" transform="rotate(0,2,10)"/><circle cx="2" cy="14" r="2" transform="rotate(0,2,14)"/><circle cx="2" cy="18" r="2" transform="rotate(0,2,18)"/><circle cx="2" cy="22" r="2" transform="rotate(0,2,22)"/><circle cx="2" cy="26" r="2" transform="rotate(0,2,26)"/><circle cx="6" cy="2" r="2" transform="rotate(0,6,2)"/><circle cx="6" cy="26" r="2" transform="rotate(0,6,26)"/><circle cx="10" cy="2" r="2" transform="rotate(0,10,2)"/><circle cx="10" cy="26" r="2" transform="rotate(0,10,26)"/><circle cx="14" cy="2" r="2" transform="rotate(0,14,2)"/><circle cx="14" cy="26" r="2" transform="rotate(0,14,26)"/><circle cx="18" cy="2" r="2" transform="rotate(0,18,2)"/><circle cx="18" cy="26" r="2" transform="rotate(0,18,26)"/><circle cx="22" cy="2" r="2" transform="rotate(0,22,2)"/><circle cx="22" cy="26" r="2" transform="rotate(0,22,26)"/><circle cx="26" cy="2" r="2" transform="rotate(0,26,2)"/><circle cx="26" cy="6" r="2" transform="rotate(0,26,6)"/><circle cx="26" cy="10" r="2" transform="rotate(0,26,10)"/><circle cx="26" cy="14" r="2" transform="rotate(0,26,14)"/><circle cx="26" cy="18" r="2" transform="rotate(0,26,18)"/><circle cx="26" cy="22" r="2" transform="rotate(0,26,22)"/><circle cx="26" cy="26" r="2" transform="rotate(0,26,26)"/></g><g class="corners-dot-color-0-0"><circle cx="10" cy="10" r="2" transform="rotate(0,10,10)"/><circle cx="10" cy="14" r="2" transform="rotate(0,10,14)"/><circle cx="10" cy="18" r="2" transform="rotate(0,10,18)"/><circle cx="14" cy="10" r="2" transform="rotate(0,14,10)"/><circle cx="14" cy="14" r="2" transform="rotate(0,14,14)"/><circle cx="14" cy="18" r="2" transform="rotate(0,14,18)"/><circle cx="18" cy="10" r="2" transform="rotate(0,18,10)"/><circle cx="18" cy="14" r="2" transform="rotate(0,18,14)"/><circle cx="18" cy="18" r="2" transform="rotate(0,18,18)"/></g><g class="corners-square-color-1-0"><circle cx="74" cy="2" r="2" transform="rotate(0,74,2)"/><circle cx="74" cy="6" r="2" transform="rotate(0,74,6)"/><circle cx="74" cy="10" r="2" transform="rotate(0,74,10)"/><circle cx="74" cy="14" r="2" transform="rotate(0,74,14)"/><circle cx="74" cy="18" r="2" transform="rotate(0,74,18)"/><circle cx="74" cy="22" r="2" transform="rotate(0,74,22)"/><circle cx="74" cy="26" r="2" transform="rotate(0,74,26)"/><circle cx="78" cy="2" r="2" transform="rotate(0,78,2)"/><circle cx="78" cy="26" r="2" transform="rotate(0,78,26)"/><circle cx="82" cy="2" r="2" transform="rotate(0,82,2)"/><circle cx="82" cy="26" r="2" transform="rotate(0,82,26)"/><circle cx="86" cy="2" r="2" transform="rotate(0,86,2)"/><circle cx="86" cy="26" r="2" transform="rotate(0,86,26)"/><circle cx="90" cy="2" r="2" transform="rotate(0,90,2)"/><circle cx="90" cy="26" r="2" transform="rotate(0,90,26)"/><circle cx="94" cy="2" r="2" transform="rotate(0,94,2)"/><circle cx="94" cy="26" r="2" transform="rotate(0,94,26)"/><circle cx="98" cy="2" r="2" transform="rotate(0,98,2)"/><circle cx="98" cy="6" r="2" transform="rotate(0,98,6)"/><circle cx="98" cy="10" r="2" transform="rotate(0,98,10)"/><circle cx="98" cy="14" r="2" transform="rotate(0,98,14)"/><circle cx="98" cy="18" r="2" transform="rotate(0,98,18)"/><circle cx="98" cy="22" r="2" transform="rotate(0,98,22)"/><circle cx="98" cy="26" r="2" transform="rotate(0,98,26)"/></g><g class="corners-dot-color-1-0"><circle cx="82" cy="10" r="2" transform="rotate(0,82,10)"/><circle cx="82" cy="14" r="2" transform="rotate(0,82,14)"/><circle cx="82" cy="18" r="2" transform="rotate(0,82,18)"/><circle cx="86" cy="10" r="2" transform="rotate(0,86,10)"/><circle cx="86" cy="14" r="2" transform="rotate(0,86,14)"/><circle cx="86" cy="18" r="2" transform="rotate(0,86,18)"/><circle cx="90" cy="10" r="2" transform="rotate(0,90,10)"/><circle cx="90" cy="14" r="2" transform="rotate(0,90,14)"/><circle cx="90" cy="18" r="2" transform="rotate(0,90,18)"/></g><g class="corners-square-color-0-1"><circle cx="2" cy="74" r="2" transform="rotate(0,2,74)"/><circle cx="2" cy="78" r="2" transform="rotate(0,2,78)"/><circle cx="2" cy="82" r="2" transform="rotate(0,2,82)"/><circle cx="2" cy="86" r="2" transform="rotate(0,2,86)"/><circle cx="2" cy="90" r="2" transform="rotate(0,2,90)"/><circle cx="2" cy="94" r="2" transform="rotate(0,2,94)"/><circle cx="2" cy="98" r="2" transform="rotate(0,2,98)"/><circle cx="6" cy="74" r="2" transform="rotate(0,6,74)"/><circle cx="6" cy="98" r="2" transform="rotate(0,6,98)"/><circle cx="10" cy="74" r="2" transform="rotate(0,10,74)"/><circle cx="10" cy="98" r="2" transform="rotate(0,10,98)"/><circle cx="14" cy="74" r="2" transform="rotate(0,14,74)"/><circle cx="14" cy="98" r="2" transform="rotate(0,14,98)"/><circle cx="18" cy="74" r="2" transform="rotate(0,18,74)"/><circle cx="18" cy="98" r="2" transform="rotate(0,18,98)"/><circle cx="22" cy="74" r="2" transform="rotate(0,22,74)"/><circle cx="22" cy="98" r="2" transform="rotate(0,22,98)"/><circle cx="26" cy="74" r="2" transform="rotate(0,26,74)"/><circle cx="26" cy="78" r="2" transform="rotate(0,26,78)"/><circle cx="26" cy="82" r="2" transform="rotate(0,26,82)"/><circle cx="26" cy="86" r="2" transform="rotate(0,26,86)"/><circle cx="26" cy="90" r="2" transform="rotate(0,26,90)"/><circle cx="26" cy="94" r="2" transform="rotate(0,26,94)"/><circle cx="26" cy="98" r="2" transform="rotate(0,26,98)"/></g><g class="corners-dot-color-0-1"><circle cx="10" cy="82" r="2" transform="rotate(0,10,82)"/><circle cx="10" cy="86" r="2" transform="rotate(0,10,86)"/><circle cx="10" cy="90" r="2" transform="rotate(0,10,90)"/><circle cx="14" cy="82" r="2" transform="rotate(0,14,82)"/><circle cx="14" cy="86" r="2" transform="rotate(0,14,86)"/><circle cx="14" cy="90" r="2" transform="rotate(0,14,90)"/><circle cx="18" cy="82" r="2" transform="rotate(0,18,82)"/><circle cx="18" cy="86" r="2" transform="rotate(0,18,86)"/><circle cx="18" cy="90" r="2" transform="rotate(0,18,90)"/></g></svg>